<?xml version="1.0" encoding="iso-8859-1"?>
<!-- Generator: Adobe Illustrator 16.0.0, SVG Export Plug-In . SVG Version: 6.00 Build 0)  -->
<!DOCTYPE svg PUBLIC "-//W3C//DTD SVG 1.1//EN" "http://www.w3.org/Graphics/SVG/1.1/DTD/svg11.dtd">
<svg version="1.1" id="Capa_1" xmlns="http://www.w3.org/2000/svg" xmlns:xlink="http://www.w3.org/1999/xlink" x="0px" y="0px"
	 width="10px" height="10px" viewBox="0 0 612.021 612.021" style="enable-background:new 0 0 612.021 612.021;"
	 xml:space="preserve">
<g>
	<g>
		<path d="M522.518,612.021H325.686c-7.825,0-15.671-0.71-23.324-2.131c-7.954-1.421-15.65-3.423-23.787-5.555
			c-21.538-5.618-45.938-11.99-90.671-11.99c-16.802,0-30.461-16.866-30.461-37.607V293.487c0-20.73,13.659-37.586,30.461-37.586
			c15.058,0,17.566-4.413,28.33-27.845c5.091-11.076,11.42-24.853,21.527-41.493c6.361-10.473,18.168-23.733,31.849-39.093
			c17.803-19.988,39.89-44.797,45.604-60.641l9.569-57.348C325.321,13.39,339.033,0,355.2,0c18.524,0,33.205,7.9,44.916,24.175
			c24.53,34.131,27.135,98.809,7.782,192.343h114.62c49.351,0,89.498,40.137,89.498,89.477v216.518
			C612.005,571.874,571.869,612.021,522.518,612.021z M355.2,21.527c-3.724,0-8.912,3.401-8.912,8.934
			c0,0.592-0.054,1.184-0.15,1.765l-9.838,59.027c-0.097,0.56-0.227,1.108-0.409,1.636c-6.674,19.988-28.813,44.852-50.211,68.875
			c-12.432,13.96-24.186,27.146-29.524,35.95c-9.461,15.585-15.5,28.738-20.364,39.308c-10.764,23.443-18.556,40.384-47.887,40.384
			c-3.649,0-8.934,6.254-8.934,16.059v261.262c0,9.816,5.285,16.081,8.934,16.081c47.499,0,74.451,7.028,96.107,12.689
			c7.717,2.023,15.015,3.918,22.194,5.199c6.447,1.184,12.97,1.786,19.481,1.786h196.832c37.479,0,67.971-30.492,67.971-67.981
			V306.006c0-37.468-30.492-67.95-67.971-67.95H394.573c-3.272,0-6.351-1.485-8.396-4.025c-2.034-2.551-2.82-5.888-2.109-9.074
			c20.386-91.715,19.891-158.557-1.421-188.199C374.865,25.94,366.911,21.527,355.2,21.527z M109.168,612.021H30.423
			c-16.77,0-30.417-13.648-30.417-30.439V266.654c0-16.791,13.648-30.439,30.417-30.439h78.735c16.802,0,30.46,13.659,30.46,30.439
			v314.928C139.629,598.373,125.959,612.021,109.168,612.021z M30.423,257.742c-4.897,0-8.891,3.993-8.891,8.912v314.928
			c0,4.919,3.993,8.912,8.891,8.912h78.735c4.93,0,8.934-3.993,8.934-8.912V266.654c0-4.919-4.004-8.912-8.934-8.912H30.423z"/>
	</g>
</g>
<g>
</g>
<g>
</g>
<g>
</g>
<g>
</g>
<g>
</g>
<g>
</g>
<g>
</g>
<g>
</g>
<g>
</g>
<g>
</g>
<g>
</g>
<g>
</g>
<g>
</g>
<g>
</g>
<g>
</g>
</svg>
